<svg xmlns="http://www.w3.org/2000/svg" viewBox="0 0 600 400"><defs><filter id="grain"><feTurbulence type="fractalNoise" baseFrequency=".8" numOctaves="3" stitchTiles="stitch"/><feColorMatrix type="saturate" values="0"/><feComponentTransfer><feFuncA type="linear" slope=".12"/></feComponentTransfer><feBlend in="SourceGraphic" mode="multiply"/></filter><linearGradient id="sky" x2="0" y2="1"><stop stop-color="#b9b0a0"/><stop offset="1" stop-color="#ece6d6"/></linearGradient></defs><g filter="url(#grain)"><path fill="url(#sky)" d="M0 0H600V400H0z"/><path fill="#746a58" d="M0 280Q90 240 160 290T300 275T450 270T600 260V400H0z"/><ellipse cx="295" cy="387" rx="133" ry="110" fill="#535a50"/><path fill="#eee1c8" d="M271 255h50l9 60-36 53-39-53z"/><path fill="#c8b591" d="M275 238h42v59q-19 24-43 0z"/><ellipse cx="298" cy="179" rx="64" ry="81" fill="#cfbd9d"/><path fill="#504d43" d="M231 187q-27-143 67-142 100 4 60 147l-10-77q-56 14-87-12z"/><path stroke="#665c4d" stroke-width="4" fill="none" d="M259 169q15-9 27 0M310 169q15-8 28 0M290 182l-7 26 17 4M275 228q22 11 43-1"/><path fill="#41483f" d="M269 286l-38 14 27 66 38-43zM326 286l35 18-34 62-31-43z"/><path fill="#3f4036" d="M232 126q-20 64 6 118l-32 51q-19-30-6-75zM356 113q38 72 5 125l33 54q15-56-10-108z"/></g><path fill="none" stroke="#f0e6d3" stroke-width="10" d="M5 5H595V395H5z"/></svg>